<svg 
width="404.01648609267124" height="312.3600219726562" viewBox="0 0 350 270.5978875954904" class="looka-1j8o68f"><defs id="SvgjsDefs1304"></defs><g id="SvgjsG1305" featurekey="AgVF85-0" transform="matrix(2.300983939076731,0,0,2.300983939076731,92.16865097975094,-12.509794186348037)" fill="#111111"><path xmlns="http://www.w3.org/2000/svg" d="M45.32,50.11H26.71c-2.62,0-2.62,3.94,0,3.94h18.61C47.94,54.04,47.94,50.11,45.32,50.11L45.32,50.11z M11.2,42.83  c-0.36,0.24-0.48,0.72-0.24,0.95c0.24,0.36,0.72,0.48,1.07,0.24l4.06-2.98c0.36-0.24,0.36-0.6,0.12-0.95  c-0.12-0.36-0.6-0.36-0.95-0.24L11.2,42.83z M6.43,19.81c-0.36,0-0.83,0.24-0.83,0.6c-0.12,0.48,0.24,0.83,0.6,0.83l5.01,0.83  c0.36,0.12,0.72-0.12,0.83-0.6c0-0.36-0.24-0.72-0.6-0.83L6.43,19.81z M6.31,31.02c-0.36,0.12-0.6,0.48-0.48,0.95  c0,0.36,0.48,0.6,0.83,0.48l4.89-0.95c0.36-0.12,0.72-0.48,0.6-0.83c-0.12-0.48-0.48-0.72-0.83-0.6L6.31,31.02z M11.32,8.12  C10.96,7.88,10.61,8,10.37,8.36c-0.24,0.36-0.12,0.72,0.12,0.95l4.29,2.86c0.36,0.12,0.72,0.12,0.95-0.24  c0.24-0.36,0.12-0.83-0.24-1.07L11.32,8.12z M60.82,42.83c0.36,0.24,0.36,0.72,0.12,0.95c-0.24,0.36-0.6,0.48-0.95,0.24l-4.17-2.98  c-0.24-0.24-0.36-0.6-0.12-0.95c0.24-0.36,0.72-0.36,0.95-0.24L60.82,42.83z M65.59,19.81c0.36,0,0.72,0.24,0.83,0.6  c0,0.48-0.24,0.83-0.6,0.83l-5.01,0.83c-0.36,0.12-0.83-0.12-0.83-0.6c-0.12-0.36,0.24-0.72,0.6-0.83L65.59,19.81z M65.59,31.02  c0.36,0.12,0.6,0.48,0.6,0.95c-0.12,0.36-0.48,0.6-0.83,0.48l-5.01-0.95c-0.36-0.12-0.6-0.48-0.6-0.83c0.12-0.48,0.48-0.72,0.95-0.6  L65.59,31.02z M60.58,8.12c0.36-0.24,0.83-0.12,1.07,0.24c0.24,0.36,0.12,0.72-0.24,0.95l-4.17,2.86c-0.36,0.12-0.83,0.12-1.07-0.24  c-0.24-0.36-0.12-0.83,0.24-1.07L60.58,8.12z M30.17,60.96c0.12,3.22,2.74,5.61,5.84,5.61l0,0c3.1,0,5.73-2.5,5.84-5.61H30.17z   M27.54,55.59c-2.5,0-2.5,3.94,0.12,3.94h16.7c2.5,0,2.62-3.94,0-3.94H27.54z M26.71,48.56h8.59v-4.41  c-0.48-0.12-0.95-0.36-1.31-0.72c-0.48-0.48-0.83-1.19-0.83-2.03c0-0.72,0.36-1.43,0.83-1.91c0.48-0.6,1.19-0.83,2.03-0.83  c0.72,0,1.43,0.24,1.91,0.83c0.6,0.48,0.83,1.19,0.83,1.91c0,0.83-0.24,1.55-0.83,2.03c-0.36,0.36-0.72,0.6-1.19,0.72v4.41h8.59  c0.12,0,0.36,0.12,0.6,0.12c0.12-4.17,0.95-5.84,4.41-10.38c2.03-2.62,4.06-5.37,4.89-9.54c0.72-3.82,0.24-7.87-1.19-11.45  c-1.07-2.5-2.62-4.65-4.65-6.56c-7.63-7.28-19.68-7.04-27.19,0.48c-3.58,3.46-5.84,8.35-5.84,13.84c0,6.32,2.74,9.9,5.25,13.24  c3.7,4.77,4.41,6.56,4.53,10.38C26.35,48.67,26.47,48.56,26.71,48.56L26.71,48.56z M27.42,35.79c0.36,1.31,1.55,2.27,3.1,2.27  c1.67-0.12,2.98-1.55,2.86-3.22c0-1.19-0.72-2.15-1.79-2.62c-0.83-0.48-0.24-1.79,0.6-1.31c0.36,0.12,0.72,0.36,0.95,0.6h0.12  c0.95-1.07,1.19-2.74,0.6-4.06c-0.12-0.24-0.24-0.48-0.36-0.72c-0.6,0.6-1.43,0.95-2.27,1.19c0,0.36-0.12,0.83-0.24,1.19  c-0.48,0.95-1.79,0.36-1.43-0.6c0.36-0.72,0.12-1.55-0.48-2.03c-0.72-0.6,0.24-1.67,0.95-1.07c0.36,0.24,0.6,0.6,0.83,1.07  c1.31-0.24,2.39-1.19,2.86-2.5c0.36-1.07,0.24-2.27-0.36-3.22c-0.36-0.48-0.72-0.95-1.19-1.19c-0.48,0.12-0.95,0.24-1.43,0.36  c-0.6,0-1.07-0.12-1.67-0.24c-0.83-0.24-0.48-1.67,0.48-1.43c0.36,0.12,0.72,0.24,1.07,0.12c1.91,0,3.22-1.67,3.22-3.46  c-0.12-1.79-1.67-3.22-3.58-3.22c-1.19,0.12-2.39,0.95-2.86,2.03h0.12c0.36,0.12,0.6,0.24,0.95,0.48c0.24-0.24,0.48-0.48,0.83-0.6  c0.83-0.36,1.43,0.95,0.6,1.31c-0.6,0.24-0.83,0.83-0.83,1.43c0.12,0.95-1.31,1.19-1.43,0.24c0-0.36,0-0.83,0.12-1.19  c-0.24-0.12-0.48-0.12-0.72-0.24c-0.95-0.36-2.15-0.12-2.98,0.72c-0.6,0.6-1.07,1.43-0.95,2.39c0,0.83,0.36,1.55,0.95,2.15  c0.72,0.6-0.24,1.67-0.95,1.07c-0.24-0.24-0.48-0.6-0.72-0.83c-1.07,0.72-1.79,1.91-1.67,3.34c0.12,2.03,1.91,3.7,3.94,3.58  c0.95,0,1.07,1.43,0.12,1.43c-0.72,0-1.43-0.12-2.15-0.36c-0.36,0.72-0.6,1.43-0.6,2.27c0.12,2.03,1.79,3.58,3.82,3.58  c0-0.36,0.12-0.72,0.24-1.07c-0.24-0.24-0.48-0.48-0.6-0.83c-0.48-0.83,0.83-1.43,1.31-0.6c0.24,0.6,0.83,0.83,1.43,0.83  c0.95-0.12,1.07,1.31,0.12,1.43c-0.36,0-0.72,0-1.07-0.12C27.19,34.72,27.19,35.2,27.42,35.79L27.42,35.79z M34.46,25.65  c0.36,0.36,0.6,0.72,0.72,1.19c0.95,1.91,0.48,4.17-0.95,5.73c0.36,0.72,0.6,1.43,0.6,2.15c0.12,2.5-1.79,4.65-4.29,4.77  c-1.19,0.12-2.39-0.36-3.22-1.19c-0.72-0.6-1.19-1.43-1.43-2.27c-2.74,0-5.13-2.27-5.25-5.01c0-1.07,0.24-2.15,0.83-2.98  c-1.31-0.95-2.15-2.39-2.15-4.06c-0.12-1.91,0.83-3.7,2.5-4.65c-0.12-0.36-0.12-0.72-0.12-1.07c-0.12-2.5,1.79-4.53,4.29-4.65l0,0  l0,0c0.6-1.91,2.27-3.22,4.29-3.34c2.62-0.12,4.89,1.91,5.01,4.65c0,1.43-0.6,2.86-1.79,3.82c0.48,0.36,0.83,0.83,1.07,1.19  c0.83,1.31,1.07,2.98,0.48,4.53C34.94,24.94,34.7,25.3,34.46,25.65L34.46,25.65z M25.52,22.55c-0.95-0.12-0.72-1.55,0.24-1.43  c0.24,0,0.36,0,0.6,0c0.95,0,0.95,1.43,0,1.43C26.11,22.67,25.87,22.55,25.52,22.55L25.52,22.55z M36.97,40.44  c-0.24-0.24-0.6-0.36-0.95-0.36c-0.36,0-0.72,0.12-0.95,0.36c-0.24,0.24-0.48,0.6-0.48,0.95s0.24,0.72,0.48,0.95  c0.24,0.24,0.6,0.48,0.95,0.48c0.36,0,0.72-0.24,0.95-0.48c0.24-0.24,0.36-0.6,0.36-0.95S37.2,40.68,36.97,40.44L36.97,40.44z   M46.39,22.55c-0.24,0-0.6,0.12-0.83,0c-0.95,0-0.83-1.43,0.12-1.43c0.12,0,0.36,0,0.6,0C47.1,21,47.34,22.43,46.39,22.55  L46.39,22.55z M37.44,25.65c-0.24-0.36-0.48-0.72-0.6-1.19c-0.48-1.55-0.36-3.22,0.6-4.53c0.24-0.36,0.6-0.83,0.95-1.19  c-1.19-0.95-1.79-2.39-1.67-3.82c0.12-2.74,2.27-4.77,5.01-4.65c1.91,0.12,3.58,1.43,4.29,3.34l0,0l0,0  c2.39,0.12,4.29,2.15,4.29,4.65c0,0.36-0.12,0.72-0.24,1.07c1.67,0.95,2.62,2.74,2.62,4.65c-0.12,1.67-0.95,3.1-2.15,4.06  c0.48,0.83,0.83,1.91,0.72,2.98c-0.12,2.74-2.39,5.01-5.25,5.01c-0.24,0.83-0.72,1.67-1.43,2.27c-0.83,0.83-1.91,1.31-3.22,1.19  c-2.5-0.12-4.41-2.27-4.29-4.77c0-0.72,0.24-1.43,0.72-2.15c-1.55-1.55-1.91-3.82-1.07-5.73C36.97,26.37,37.2,26.01,37.44,25.65  L37.44,25.65z M44.6,35.79c0.12-0.6,0.12-1.07,0-1.67c-0.36,0.12-0.72,0.12-1.07,0.12c-0.83-0.12-0.72-1.55,0.12-1.43  c0.72,0,1.19-0.24,1.55-0.83c0.36-0.83,1.67-0.24,1.31,0.6c-0.24,0.36-0.36,0.6-0.6,0.83c0.12,0.36,0.24,0.72,0.24,1.07  c1.91,0,3.58-1.55,3.7-3.58c0-0.83-0.12-1.55-0.6-2.27c-0.6,0.24-1.31,0.36-2.03,0.36c-0.95,0-0.95-1.43,0-1.43  c2.15,0.12,3.94-1.55,3.94-3.58c0.12-1.43-0.48-2.62-1.67-3.34c-0.12,0.24-0.36,0.6-0.72,0.83c-0.6,0.6-1.67-0.48-0.95-1.07  c0.6-0.6,0.95-1.31,1.07-2.15c0-0.95-0.36-1.79-1.07-2.39c-0.72-0.83-1.91-1.07-2.98-0.72c-0.24,0.12-0.48,0.12-0.6,0.24  c0,0.36,0.12,0.83,0,1.19c-0.12,0.95-1.55,0.72-1.43-0.24c0.12-0.6-0.24-1.19-0.72-1.43c-0.95-0.36-0.36-1.67,0.6-1.31  c0.24,0.12,0.6,0.36,0.72,0.6c0.36-0.24,0.72-0.36,1.07-0.48l0,0c-0.48-1.07-1.55-1.91-2.86-2.03c-1.79,0-3.46,1.43-3.46,3.22  c-0.12,1.79,1.31,3.46,3.1,3.46c0.48,0.12,0.83,0,1.19-0.12c0.83-0.24,1.31,1.19,0.36,1.43c-0.48,0.12-1.07,0.24-1.55,0.24  c-0.48-0.12-1.07-0.24-1.43-0.36c-0.48,0.24-0.95,0.72-1.19,1.19c-0.6,0.95-0.83,2.15-0.36,3.22c0.36,1.31,1.43,2.27,2.74,2.5  c0.24-0.48,0.6-0.83,0.95-1.07c0.72-0.6,1.55,0.48,0.83,1.07c-0.6,0.48-0.72,1.31-0.48,2.03c0.36,0.95-0.95,1.55-1.31,0.6  c-0.12-0.36-0.24-0.83-0.24-1.19c-0.83-0.24-1.67-0.6-2.39-1.19c-0.12,0.24-0.24,0.48-0.36,0.72c-0.6,1.31-0.24,2.98,0.72,4.06l0,0  c0.36-0.24,0.6-0.48,0.95-0.6c0.83-0.48,1.55,0.83,0.6,1.31c-0.95,0.48-1.67,1.43-1.79,2.62c0,1.67,1.31,3.1,2.98,3.22  C42.93,38.06,44.12,37.1,44.6,35.79L44.6,35.79z"></path></g><g id="SvgjsG1306" featurekey="vRT5cH-0" transform="matrix(4.600090206498277,0,0,4.600090206498277,-7.26169878685496,140.20760332183727)" fill="#111111"><path d="M6.82 20.3 c-0.64 0 -1.2466 -0.10996 -1.82 -0.32996 s-1.0933 -0.53 -1.56 -0.93 l0 0.38 c0 0.24 -0.08666 0.44666 -0.26 0.62 s-0.38 0.26 -0.62 0.26 c-0.25334 0 -0.46668 -0.08666 -0.64002 -0.26 s-0.26 -0.38 -0.26 -0.62 l-0.08 -14.02 c-0.01334 -0.24 0.07 -0.44666 0.25 -0.62 s0.39 -0.26 0.63 -0.26 c0.25334 0 0.46334 0.08666 0.63 0.26 s0.25 0.38 0.25 0.62 l0.08 5.88 c0.46666 -0.41334 0.99 -0.73 1.57 -0.95 s1.19 -0.33 1.83 -0.33 c0.70666 0 1.3733 0.13666 2 0.41 s1.1733 0.64334 1.64 1.11 s0.83332 1.0133 1.1 1.64 s0.4 1.2933 0.4 2 s-0.13334 1.37 -0.4 1.99 s-0.63332 1.1633 -1.1 1.63 s-1.0133 0.83666 -1.64 1.11 s-1.2933 0.41 -2 0.41 z M6.82 11.78 c-0.46666 0 -0.90332 0.09 -1.31 0.27 s-0.76332 0.42334 -1.07 0.73 s-0.55 0.66332 -0.73 1.07 s-0.27 0.84332 -0.27 1.31 s0.09 0.90332 0.27 1.31 s0.42334 0.76332 0.73 1.07 s0.66332 0.54666 1.07 0.72 s0.84332 0.26 1.31 0.26 s0.90332 -0.08666 1.31 -0.26 s0.76332 -0.41334 1.07 -0.72 s0.54666 -0.66332 0.72 -1.07 s0.26 -0.84332 0.26 -1.31 s-0.08666 -0.90332 -0.26 -1.31 s-0.41334 -0.76332 -0.72 -1.07 s-0.66332 -0.55 -1.07 -0.73 s-0.84332 -0.27 -1.31 -0.27 z M15.280000000000001 20.3 c-0.24 0 -0.44666 -0.08666 -0.62 -0.26 s-0.26 -0.38 -0.26 -0.62 l0 -14.02 c0 -0.24 0.08666 -0.44666 0.26 -0.62 s0.38 -0.26 0.62 -0.26 s0.44666 0.08666 0.62 0.26 s0.26 0.38 0.26 0.62 l0 14.02 c0 0.24 -0.08666 0.44666 -0.26 0.62 s-0.38 0.26 -0.62 0.26 z M23.78 20.3 c-0.70666 0 -1.3733 -0.13666 -2 -0.41 s-1.1733 -0.64334 -1.64 -1.11 s-0.83666 -1.01 -1.11 -1.63 s-0.41 -1.2833 -0.41 -1.99 s0.13666 -1.3733 0.41 -2 s0.64334 -1.1733 1.11 -1.64 s1.0133 -0.83666 1.64 -1.11 s1.2933 -0.41 2 -0.41 s1.37 0.13666 1.99 0.41 s1.1633 0.64334 1.63 1.11 s0.83666 1.0133 1.11 1.64 s0.41 1.2933 0.41 2 s-0.13666 1.37 -0.41 1.99 s-0.64334 1.1633 -1.11 1.63 s-1.01 0.83666 -1.63 1.11 s-1.2833 0.41 -1.99 0.41 z M23.78 11.78 c-0.46666 0 -0.90326 0.09 -1.3099 0.27 s-0.76332 0.42334 -1.07 0.73 s-0.55 0.66332 -0.73 1.07 s-0.27 0.84332 -0.27 1.31 s0.09 0.90332 0.27 1.31 s0.42334 0.76332 0.73 1.07 s0.66332 0.54666 1.07 0.72 s0.84332 0.26 1.31 0.26 s0.90332 -0.08666 1.31 -0.26 s0.76332 -0.41334 1.07 -0.72 s0.54666 -0.66332 0.72 -1.07 s0.26 -0.84332 0.26 -1.31 s-0.09 -0.90332 -0.27 -1.31 s-0.42 -0.76332 -0.72 -1.07 s-0.65666 -0.55 -1.07 -0.73 s-0.84668 -0.27 -1.3 -0.27 z M35.64 24.6 c-0.44 0 -0.8767 -0.0567 -1.31 -0.17004 s-0.84668 -0.28 -1.24 -0.5 s-0.75334 -0.48666 -1.08 -0.8 s-0.59666 -0.66334 -0.81 -1.05 c-0.02666 -0.06666 -0.05332 -0.13666 -0.07998 -0.21 s-0.04 -0.15 -0.04 -0.23 c0 -0.24 0.08666 -0.45 0.26 -0.63 s0.38668 -0.27 0.64002 -0.27 c0.18666 0 0.33332 0.04 0.43998 0.12 s0.20666 0.17334 0.3 0.28 c0.02666 0.05334 0.06 0.10334 0.1 0.15 s0.07334 0.09666 0.1 0.15 l0.18 0.24 c0.30666 0.36 0.68666 0.64 1.14 0.84 s0.92 0.3 1.4 0.3 c0.45334 0 0.88668 -0.09 1.3 -0.27 s0.77 -0.42334 1.07 -0.73 s0.54 -0.66332 0.72 -1.07 s0.27 -0.84332 0.27 -1.31 l0 -0.42 c-0.46666 0.41334 -0.98666 0.73 -1.56 0.95 s-1.1733 0.33 -1.8 0.33 c-0.70666 0 -1.3733 -0.13666 -2 -0.41 s-1.1733 -0.64334 -1.64 -1.11 s-0.83666 -1.0133 -1.11 -1.64 s-0.41 -1.2933 -0.41 -2 s0.13666 -1.37 0.41 -1.99 s0.64334 -1.1633 1.11 -1.63 s1.0133 -0.83666 1.64 -1.11 s1.2933 -0.41 2 -0.41 c0.62666 0 1.2267 0.11 1.8 0.33 s1.0933 0.53 1.56 0.93 l0 -0.38 c0 -0.24 0.08666 -0.44666 0.26 -0.62 s0.38668 -0.26 0.64002 -0.26 c0.24 0 0.44666 0.08666 0.62 0.26 s0.26 0.38 0.26 0.62 l0 8.56 c0 0.70666 -0.13666 1.3733 -0.41 2 s-0.64334 1.1733 -1.11 1.64 s-1.01 0.83666 -1.63 1.11 s-1.2833 0.41 -1.99 0.41 z M35.64 11.78 c-0.46666 0 -0.90332 0.09 -1.31 0.27 s-0.76332 0.42 -1.07 0.72 s-0.55 0.65666 -0.73 1.07 s-0.27 0.84668 -0.27 1.3 c0 0.46666 0.09 0.90332 0.27 1.31 s0.42334 0.76332 0.73 1.07 s0.66332 0.55 1.07 0.73 s0.84332 0.27 1.31 0.27 c0.45334 0 0.88668 -0.09 1.3 -0.27 s0.77 -0.42334 1.07 -0.73 s0.54 -0.66332 0.72 -1.07 s0.27 -0.84332 0.27 -1.31 c0 -0.45334 -0.09 -0.88668 -0.27 -1.3 s-0.42 -0.77 -0.72 -1.07 s-0.65666 -0.54 -1.07 -0.72 s-0.84668 -0.27 -1.3 -0.27 z M46.66 20.3 c-0.4 0 -0.8033 -0.06666 -1.21 -0.2 s-0.77332 -0.32668 -1.1 -0.58002 s-0.59332 -0.56668 -0.79998 -0.94002 s-0.31 -0.79334 -0.31 -1.26 c0 -0.24 0.08666 -0.44666 0.26 -0.62 s0.38 -0.26 0.62 -0.26 c0.25334 0 0.46668 0.08666 0.64002 0.26 s0.26 0.38 0.26 0.62 c0 0.38666 0.16666 0.68332 0.5 0.88998 s0.71334 0.31 1.14 0.31 c0.46666 0 0.82332 -0.09666 1.07 -0.29 s0.37 -0.51 0.37 -0.95 c0 -0.26666 -0.05 -0.48 -0.15 -0.64 s-0.24334 -0.3 -0.43 -0.42 c-0.10666 -0.06666 -0.21666 -0.12332 -0.33 -0.16998 s-0.23668 -0.09666 -0.37002 -0.15 s-0.27 -0.1 -0.41 -0.14 s-0.28334 -0.08666 -0.43 -0.14 c-0.29334 -0.09334 -0.59 -0.20334 -0.89 -0.33 s-0.57334 -0.29 -0.82 -0.49 s-0.44666 -0.45334 -0.6 -0.76 s-0.23 -0.69332 -0.23 -1.16 c0 -0.42666 0.08 -0.81666 0.24 -1.17 s0.38 -0.65668 0.66 -0.91002 s0.60334 -0.45 0.97 -0.59 s0.75 -0.21 1.15 -0.21 s0.78334 0.07 1.15 0.21 s0.68666 0.33666 0.96 0.59 s0.49334 0.55668 0.66 0.91002 s0.25 0.74334 0.25 1.17 c0 0.24 -0.08666 0.44666 -0.26 0.62 s-0.38668 0.26 -0.64002 0.26 c-0.24 0 -0.44666 -0.08666 -0.62 -0.26 s-0.26 -0.38 -0.26 -0.62 c0 -0.33334 -0.12 -0.6 -0.36 -0.8 s-0.53334 -0.3 -0.88 -0.3 s-0.64 0.1 -0.88 0.3 s-0.36 0.46666 -0.36 0.8 c0 0.30666 0.18666 0.55332 0.56 0.73998 c0.21334 0.12 0.45334 0.22 0.72 0.3 c0.13334 0.06666 0.27334 0.12 0.42 0.16 s0.29332 0.09334 0.43998 0.16 c0.29334 0.10666 0.59 0.23666 0.89 0.39 s0.57 0.34668 0.81 0.58002 s0.43666 0.51668 0.59 0.85002 s0.23 0.74 0.23 1.22 s-0.08334 0.90666 -0.25 1.28 s-0.39666 0.69 -0.69 0.95 s-0.63668 0.45666 -1.03 0.59 s-0.81 0.2 -1.25 0.2 z M57 11.78 l-1.62 0 l0 7.64 c0 0.24 -0.08666 0.44666 -0.26 0.62 s-0.38668 0.26 -0.64002 0.26 c-0.24 0 -0.44666 -0.08666 -0.62 -0.26 s-0.26 -0.38 -0.26 -0.62 l0 -7.64 l-1.64 0 c-0.24 0 -0.44666 -0.08666 -0.62 -0.26 s-0.26 -0.38 -0.26 -0.62 c0 -0.25334 0.08666 -0.46668 0.26 -0.64002 s0.38 -0.26 0.62 -0.26 l1.64 0 l0 -2.94 c0 -0.25334 0.08666 -0.46334 0.26 -0.63 s0.38 -0.25 0.62 -0.25 c0.25334 0 0.46668 0.08334 0.64002 0.25 s0.26 0.37666 0.26 0.63 l0 2.94 l1.62 0 c0.25334 0 0.46668 0.08666 0.64002 0.26 s0.26 0.38668 0.26 0.64002 c0 0.24 -0.08666 0.44666 -0.26 0.62 s-0.38668 0.26 -0.64002 0.26 z M68.47999999999999 15.620000000000001 l-7.58 -0.000058594 c0.05334 0.41334 0.17668 0.79668 0.37002 1.15 s0.44 0.66 0.74 0.92 s0.64 0.46334 1.02 0.61 s0.78334 0.22 1.21 0.22 c0.25334 0 0.48334 -0.02 0.69 -0.06 s0.4 -0.10334 0.58 -0.19 s0.36 -0.19332 0.54 -0.31998 s0.37666 -0.27 0.59 -0.43 c0.08 -0.06666 0.16334 -0.12332 0.25 -0.16998 s0.20332 -0.07 0.34998 -0.07 c0.25334 0 0.46668 0.08666 0.64002 0.26 s0.26 0.38 0.26 0.62 c0 0.14666 -0.02666 0.26666 -0.08 0.36 s-0.11334 0.18 -0.18 0.26 c-0.21334 0.24 -0.46334 0.45666 -0.75 0.65 s-0.59332 0.35334 -0.91998 0.48 s-0.66 0.22332 -1 0.28998 s-0.66334 0.1 -0.97 0.1 c-0.70666 0 -1.3733 -0.13666 -2 -0.41 s-1.1733 -0.64334 -1.64 -1.11 s-0.83666 -1.01 -1.11 -1.63 s-0.41 -1.2833 -0.41 -1.99 s0.13666 -1.3733 0.41 -2 s0.64334 -1.1733 1.11 -1.64 s1.0133 -0.83666 1.64 -1.11 s1.2933 -0.41 2 -0.41 c0.68 0 1.32 0.11334 1.92 0.34 s1.1333 0.55 1.6 0.97 s0.84 0.92 1.12 1.5 s0.44 1.2167 0.48 1.91 c0.01334 0.26666 -0.07 0.48332 -0.25 0.64998 s-0.39 0.25 -0.63 0.25 z M64.24 11.78 c-0.69334 0 -1.32 0.19 -1.88 0.57 s-0.97334 0.87666 -1.24 1.49 l6.22 0 c-0.25334 -0.62666 -0.66334 -1.1267 -1.23 -1.5 s-1.19 -0.56 -1.87 -0.56 z M73.52 10.58 c0.21334 -0.18666 0.45006 -0.33002 0.71006 -0.43002 s0.52334 -0.15 0.79 -0.15 c0.65334 0 1.19 0.16 1.61 0.48 s0.74334 0.78 0.97 1.38 c0.05334 0.13334 0.07334 0.27334 0.06 0.42 s-0.05668 0.28 -0.13002 0.4 s-0.17334 0.21666 -0.3 0.29 s-0.27666 0.11 -0.45 0.11 c-0.14666 0 -0.27666 -0.03334 -0.39 -0.1 s-0.21 -0.14666 -0.29 -0.24 c-0.06666 -0.08 -0.12332 -0.16334 -0.16998 -0.25 s-0.09666 -0.17666 -0.15 -0.27 c-0.09334 -0.14666 -0.19668 -0.26666 -0.31002 -0.36 s-0.30334 -0.12668 -0.57 -0.10002 c-0.17334 0.01334 -0.34 0.06668 -0.5 0.16002 s-0.3 0.20668 -0.42 0.34002 s-0.21666 0.28334 -0.29 0.45 s-0.11 0.33666 -0.11 0.51 l0 6.2 c0 0.24 -0.08666 0.44666 -0.26 0.62 s-0.38 0.26 -0.62 0.26 c-0.25334 0 -0.46668 -0.08666 -0.64002 -0.26 s-0.26 -0.38 -0.26 -0.62 l0 -8.54 c0 -0.24 0.08666 -0.44666 0.26 -0.62 s0.38668 -0.26 0.64002 -0.26 c0.18666 0 0.35332 0.05334 0.49998 0.16 s0.25332 0.24666 0.31998 0.42 z"></path></g><g id="SvgjsG1307" featurekey="dDj50M-0" transform="matrix(0.509925355034328,0,0,0.509925355034328,34.082134142101985,260.2871975099856)" fill="#111111"><path d="M14.42 20 l-1.78 0 l0 -11.36 l-4.54 6.2 l-4.52 -6.2 l0 11.36 l-1.78 0 l0 -14.24 l1.88 0 l4.42 6.08 l4.42 -6.08 l1.9 0 l0 14.24 z M33.44 20 l-1.58 -4.14 l-5.82 0 l-1.58 4.14 l-1.92 0 l5.48 -14.24 l1.86 0 l5.5 14.24 l-1.94 0 z M31.16 14.1 l-2.2 -5.76 l-2.22 5.76 l4.42 0 z M54.52 20 l-5.9 -8.28 l-3.08 2.9 l0 5.38 l-1.78 0 l0 -14.24 l1.78 0 l0 6.46 l6.86 -6.46 l2.56 0 l-4.98 4.7 l6.8 9.54 l-2.26 0 z M65.26 20 l0 -14.24 l9 0 l0 1.72 l-7.2 0 l0 3.34 l6.28 0 l0 1.78 l-6.28 0 l0 5.64 l7.02 0 l0 1.76 l-8.82 0 z M97.80000000000001 20 l0 -7.2 l-5.02 -7.04 l2.2 0 l3.74 5.22 l3.74 -5.22 l2.18 0 l-5.02 7.04 l0 7.2 l-1.82 0 z M118.72000000000001 5.32 c4.1 0 7.46 3.34 7.46 7.46 c0 4.1 -3.36 7.42 -7.46 7.42 s-7.44 -3.32 -7.44 -7.42 c0 -4.12 3.34 -7.46 7.44 -7.46 z M118.72000000000001 18.44 c3.12 0 5.64 -2.56 5.64 -5.66 c0 -3.12 -2.52 -5.7 -5.64 -5.7 s-5.64 2.58 -5.64 5.7 c0 3.1 2.52 5.66 5.64 5.66 z M143.56 5.76 l1.8 0 l0 9.02 c0 3 -2.44 5.42 -5.44 5.42 c-2.98 0 -5.42 -2.42 -5.42 -5.42 l0 -9.02 l1.78 0 l0 9.02 c0 2.02 1.64 3.68 3.64 3.68 c2.02 0 3.64 -1.66 3.64 -3.68 l0 -9.02 z M160.3 12.42 l5.5 7.58 l-2.06 0 l-5.44 -7.48 l-2.04 0 l0 7.48 l-1.72 0 l0 -14.24 l4.94 0 c0.9 0 1.74 0.36 2.38 1 s1 1.48 1 2.38 c0 1.58 -1.1 2.9 -2.56 3.28 z M156.26000000000002 7.48 l0 3.32 l3.22 0 c0.92 0 1.66 -0.74 1.66 -1.66 s-0.74 -1.66 -1.66 -1.66 l-3.22 0 z M184.86000000000004 20 l0 -14.24 l5.12 0 c0.9 0 1.76 0.36 2.38 1 c0.64 0.62 1 1.48 1 2.38 c0 0.7 -0.2 1.36 -0.6 1.92 l-0.02 0.02 l0.02 0.02 c0.56 0.22 1.08 0.56 1.5 1 c0.88 0.86 1.36 2.02 1.36 3.26 c0 1.22 -0.48 2.38 -1.36 3.26 c-0.86 0.86 -2.02 1.38 -3.24 1.38 l-6.16 0 z M186.64000000000004 18.26 l4.38 0 c1.56 -0.04 2.82 -1.36 2.82 -2.9 c0 -1.56 -1.26 -2.84 -2.82 -2.86 l-4.38 0 l0 5.76 z M186.64000000000004 10.76 l3.34 0 c0.88 -0.02 1.6 -0.74 1.6 -1.62 s-0.7 -1.6 -1.6 -1.64 l-3.34 0 l0 3.26 z M204.24000000000004 20 l0 -14.24 l1.8 0 l0 12.5 l7.8 0 l0 1.74 l-9.6 0 z M227.92000000000004 5.32 c4.1 0 7.46 3.34 7.46 7.46 c0 4.1 -3.36 7.42 -7.46 7.42 s-7.44 -3.32 -7.44 -7.42 c0 -4.12 3.34 -7.46 7.44 -7.46 z M227.92000000000004 18.44 c3.12 0 5.64 -2.56 5.64 -5.66 c0 -3.12 -2.52 -5.7 -5.64 -5.7 s-5.64 2.58 -5.64 5.7 c0 3.1 2.52 5.66 5.64 5.66 z M250.76000000000005 10.84 l5.92 0 l0 6.3 c-1.42 1.9 -3.66 3.08 -6.02 3.08 c-4.1 0 -7.44 -3.34 -7.44 -7.46 c0 -4.1 3.34 -7.44 7.44 -7.44 c2.02 0 3.9 0.8 5.28 2.2 l-1.32 1.16 c-1.04 -1.04 -2.46 -1.6 -3.96 -1.6 c-3.14 0 -5.68 2.54 -5.68 5.68 c0 3.16 2.54 5.7 5.68 5.7 c1.66 0 3.18 -0.7 4.28 -1.92 l0 -3.94 l-4.18 0 l0 -1.76 z M277.24000000000007 20 l0 -14.24 l1.8 0 l0 14.24 l-1.8 0 z M298.74000000000007 20 l-7.62 -11.26 l0 11.26 l-1.8 0 l0 -14.24 l1.96 0 l7.6 11.26 l0 -11.26 l1.8 0 l0 14.24 l-1.94 0 z M315.26000000000005 20.14 c-0.48 0 -0.96 -0.06 -1.44 -0.16 c-1.48 -0.3 -2.94 -1.04 -4.24 -2.16 l1.18 -1.34 c1.06 0.92 2.24 1.54 3.42 1.78 c1 0.22 1.98 0.14 2.76 -0.22 c0.52 -0.24 1.42 -0.84 1.42 -2.06 c0 -1.5 -1.6 -2.04 -3.16 -2.34 c-0.14 -0.02 -2.38 -0.48 -3.28 -1 c-1.2 -0.72 -1.84 -1.8 -1.84 -3.12 c0 -0.74 0.24 -1.44 0.66 -2.06 c0.42 -0.56 1 -1.02 1.68 -1.34 c1 -0.48 2.18 -0.62 3.38 -0.42 c1.3 0.22 2.62 0.84 3.78 1.8 l-1.14 1.38 c-2.06 -1.7 -4.06 -1.74 -5.26 -1.18 c-0.82 0.38 -1.3 1.08 -1.3 1.8 c0 1.36 1.16 1.88 3 2.28 c0.76 0.18 2.34 0.44 3.28 0.98 c1.3 0.72 1.98 1.84 1.98 3.22 c0 0.82 -0.22 1.58 -0.68 2.24 c-0.42 0.6 -1.06 1.06 -1.78 1.42 c-0.76 0.38 -1.54 0.5 -2.42 0.5 z M328.96000000000004 20 l0 -14.24 l4.96 0 c0.9 0 1.76 0.36 2.4 1 s1 1.5 1 2.4 c0 1.88 -1.54 3.38 -3.4 3.38 l-3.18 0 l0 7.46 l-1.78 0 z M333.92 10.8 c0.88 0 1.6 -0.74 1.6 -1.64 s-0.72 -1.66 -1.6 -1.66 l-3.18 0 l0 3.3 l3.18 0 z M346.48 20 l0 -14.24 l1.8 0 l0 14.24 l-1.8 0 z M364.16 12.42 l5.5 7.58 l-2.06 0 l-5.44 -7.48 l-2.04 0 l0 7.48 l-1.72 0 l0 -14.24 l4.94 0 c0.9 0 1.74 0.36 2.38 1 s1 1.48 1 2.38 c0 1.58 -1.1 2.9 -2.56 3.28 z M360.12 7.48 l0 3.32 l3.22 0 c0.92 0 1.66 -0.74 1.66 -1.66 s-0.74 -1.66 -1.66 -1.66 l-3.22 0 z M378.14000000000004 20 l0 -14.24 l1.8 0 l0 14.24 l-1.8 0 z M399.64000000000004 20 l-7.62 -11.26 l0 11.26 l-1.8 0 l0 -14.24 l1.96 0 l7.6 11.26 l0 -11.26 l1.8 0 l0 14.24 l-1.94 0 z M418.08000000000004 10.84 l5.92 0 l0 6.3 c-1.42 1.9 -3.66 3.08 -6.02 3.08 c-4.1 0 -7.44 -3.34 -7.44 -7.46 c0 -4.1 3.34 -7.44 7.44 -7.44 c2.02 0 3.9 0.8 5.28 2.2 l-1.32 1.16 c-1.04 -1.04 -2.46 -1.6 -3.96 -1.6 c-3.14 0 -5.68 2.54 -5.68 5.68 c0 3.16 2.54 5.7 5.68 5.7 c1.66 0 3.18 -0.7 4.28 -1.92 l0 -3.94 l-4.18 0 l0 -1.76 z M450.88 5.32 c4.1 0 7.46 3.34 7.46 7.46 c0 4.1 -3.36 7.42 -7.46 7.42 s-7.44 -3.32 -7.44 -7.42 c0 -4.12 3.34 -7.46 7.44 -7.46 z M450.88 18.44 c3.12 0 5.64 -2.56 5.64 -5.66 c0 -3.12 -2.52 -5.7 -5.64 -5.7 s-5.64 2.58 -5.64 5.7 c0 3.1 2.52 5.66 5.64 5.66 z M469.8 20 l0 -12.48 l-3.76 0 l0 -1.76 l9.32 0 l0 1.76 l-3.76 0 l0 12.48 l-1.8 0 z M492.98 20 l0 -7.42 l-7.3 0 l0 7.42 l-1.8 0 l0 -14.24 l1.8 0 l0 5.08 l7.3 0 l0 -5.08 l1.8 0 l0 14.24 l-1.8 0 z M504.36 20 l0 -14.24 l9 0 l0 1.72 l-7.2 0 l0 3.34 l6.28 0 l0 1.78 l-6.28 0 l0 5.64 l7.02 0 l0 1.76 l-8.82 0 z M527.9599999999999 12.42 l5.5 7.58 l-2.06 0 l-5.44 -7.48 l-2.04 0 l0 7.48 l-1.72 0 l0 -14.24 l4.94 0 c0.9 0 1.74 0.36 2.38 1 s1 1.48 1 2.38 c0 1.58 -1.1 2.9 -2.56 3.28 z M523.92 7.48 l0 3.32 l3.22 0 c0.92 0 1.66 -0.74 1.66 -1.66 s-0.74 -1.66 -1.66 -1.66 l-3.22 0 z M546.02 20.14 c-0.48 0 -0.96 -0.06 -1.44 -0.16 c-1.48 -0.3 -2.94 -1.04 -4.24 -2.16 l1.18 -1.34 c1.06 0.92 2.24 1.54 3.42 1.78 c1 0.22 1.98 0.14 2.76 -0.22 c0.52 -0.24 1.42 -0.84 1.42 -2.06 c0 -1.5 -1.6 -2.04 -3.16 -2.34 c-0.14 -0.02 -2.38 -0.48 -3.28 -1 c-1.2 -0.72 -1.84 -1.8 -1.84 -3.12 c0 -0.74 0.24 -1.44 0.66 -2.06 c0.42 -0.56 1 -1.02 1.68 -1.34 c1 -0.48 2.18 -0.62 3.38 -0.42 c1.3 0.22 2.62 0.84 3.78 1.8 l-1.14 1.38 c-2.06 -1.7 -4.06 -1.74 -5.26 -1.18 c-0.82 0.38 -1.3 1.08 -1.3 1.8 c0 1.36 1.16 1.88 3 2.28 c0.76 0.18 2.34 0.44 3.28 0.98 c1.3 0.72 1.98 1.84 1.98 3.22 c0 0.82 -0.22 1.58 -0.68 2.24 c-0.42 0.6 -1.06 1.06 -1.78 1.42 c-0.76 0.38 -1.54 0.5 -2.42 0.5 z"></path></g>
</svg>